<svg viewBox="0 0 512.004 512" xmlns="http://www.w3.org/2000/svg"><path d="m411.800781 469.015625h-311.601562c-31.597657 0-57.210938-25.613281-57.210938-57.210937v-311.605469c0-31.597657 25.613281-57.210938 57.210938-57.210938h311.601562c31.597657 0 57.210938 25.613281 57.210938 57.210938v311.605469c0 31.597656-25.613281 57.210937-57.210938 57.210937zm0 0" fill="#d8d7da"/><path d="m175.34375 411.804688v-311.605469c0-31.597657 25.613281-57.210938 57.210938-57.210938h-132.355469c-31.597657 0-57.210938 25.613281-57.210938 57.210938v311.605469c0 31.597656 25.613281 57.210937 57.210938 57.210937h132.355469c-31.597657 0-57.210938-25.613281-57.210938-57.210937zm0 0" fill="#c6c5ca"/><path d="m101.003906 369.074219v-226.144531c0-23.152344 18.769532-41.921876 41.921875-41.921876h226.144531c23.15625 0 41.921876 18.769532 41.921876 41.921876v226.144531c0 23.152343-18.765626 41.921875-41.921876 41.921875h-226.144531c-23.152343 0-41.921875-18.769532-41.921875-41.921875zm0 0" fill="#92dd7a"/><path d="m142.925781 101.007812c-23.152343 0-41.921875 18.769532-41.921875 41.921876v226.144531c0 23.152343 18.769532 41.921875 41.921875 41.921875h32.417969v-309.988282zm0 0" fill="#7ec66a"/><g fill="#ffeb99"><path d="m153.917969 70.839844c-9.652344 0-17.550781-7.902344-17.550781-17.554688v-28.230468c0-9.652344 7.898437-17.550782 17.550781-17.550782 9.65625 0 17.554687 7.898438 17.554687 17.550782v28.230468c0 9.652344-7.898437 17.554688-17.554687 17.554688zm0 0"/><path d="m221.972656 70.839844c-9.652344 0-17.550781-7.902344-17.550781-17.554688v-28.230468c0-9.652344 7.898437-17.550782 17.550781-17.550782 9.65625 0 17.554688 7.898438 17.554688 17.550782v28.230468c0 9.652344-7.898438 17.554688-17.554688 17.554688zm0 0"/><path d="m290.027344 70.839844c-9.65625 0-17.554688-7.902344-17.554688-17.554688v-28.230468c0-9.652344 7.898438-17.550782 17.554688-17.550782 9.652344 0 17.550781 7.898438 17.550781 17.550782v28.230468c0 9.652344-7.898437 17.554688-17.550781 17.554688zm0 0"/><path d="m358.082031 70.839844c-9.65625 0-17.554687-7.902344-17.554687-17.554688v-28.230468c0-9.652344 7.898437-17.550782 17.554687-17.550782 9.652344 0 17.550781 7.898438 17.550781 17.550782v28.230468c0 9.652344-7.898437 17.554688-17.550781 17.554688zm0 0"/><path d="m153.917969 504.503906c-9.652344 0-17.550781-7.902344-17.550781-17.554687v-28.230469c0-9.652344 7.898437-17.554688 17.550781-17.554688 9.65625 0 17.554687 7.902344 17.554687 17.554688v28.230469c0 9.652343-7.898437 17.554687-17.554687 17.554687zm0 0"/><path d="m221.972656 504.503906c-9.652344 0-17.550781-7.902344-17.550781-17.554687v-28.230469c0-9.652344 7.898437-17.554688 17.550781-17.554688 9.65625 0 17.554688 7.902344 17.554688 17.554688v28.230469c0 9.652343-7.898438 17.554687-17.554688 17.554687zm0 0"/><path d="m290.027344 504.503906c-9.65625 0-17.554688-7.902344-17.554688-17.554687v-28.230469c0-9.652344 7.898438-17.554688 17.554688-17.554688 9.652344 0 17.550781 7.902344 17.550781 17.554688v28.230469c0 9.652343-7.898437 17.554687-17.550781 17.554687zm0 0"/><path d="m358.082031 504.503906c-9.65625 0-17.554687-7.902344-17.554687-17.554687v-28.230469c0-9.652344 7.898437-17.554688 17.554687-17.554688 9.652344 0 17.550781 7.902344 17.550781 17.554688v28.230469c0 9.652343-7.898437 17.554687-17.550781 17.554687zm0 0"/><path d="m441.164062 153.921875c0-9.65625 7.898438-17.554687 17.554688-17.554687h28.226562c9.65625 0 17.554688 7.898437 17.554688 17.554687 0 9.652344-7.898438 17.550781-17.554688 17.550781h-28.226562c-9.65625 0-17.554688-7.898437-17.554688-17.550781zm0 0"/><path d="m441.164062 221.976562c0-9.65625 7.898438-17.554687 17.554688-17.554687h28.226562c9.65625 0 17.554688 7.898437 17.554688 17.554687 0 9.652344-7.898438 17.550782-17.554688 17.550782h-28.226562c-9.65625 0-17.554688-7.898438-17.554688-17.550782zm0 0"/><path d="m441.164062 290.027344c0-9.652344 7.898438-17.550782 17.554688-17.550782h28.226562c9.65625 0 17.554688 7.898438 17.554688 17.550782 0 9.65625-7.898438 17.554687-17.554688 17.554687h-28.226562c-9.65625 0-17.554688-7.898437-17.554688-17.554687zm0 0"/><path d="m441.164062 358.082031c0-9.652343 7.898438-17.550781 17.554688-17.550781h28.226562c9.65625 0 17.554688 7.898438 17.554688 17.550781 0 9.65625-7.898438 17.554688-17.554688 17.554688h-28.226562c-9.65625 0-17.554688-7.898438-17.554688-17.554688zm0 0"/></g><path d="m7.5 153.921875c0-9.65625 7.898438-17.554687 17.554688-17.554687h28.226562c9.65625 0 17.554688 7.898437 17.554688 17.554687 0 9.652344-7.898438 17.550781-17.554688 17.550781h-28.226562c-9.65625 0-17.554688-7.898437-17.554688-17.550781zm0 0" fill="#ffde55"/><path d="m7.5 221.976562c0-9.65625 7.898438-17.554687 17.554688-17.554687h28.226562c9.65625 0 17.554688 7.898437 17.554688 17.554687 0 9.652344-7.898438 17.550782-17.554688 17.550782h-28.226562c-9.65625 0-17.554688-7.898438-17.554688-17.550782zm0 0" fill="#ffde55"/><path d="m7.5 290.027344c0-9.652344 7.898438-17.550782 17.554688-17.550782h28.226562c9.65625 0 17.554688 7.898438 17.554688 17.550782 0 9.65625-7.898438 17.554687-17.554688 17.554687h-28.226562c-9.65625 0-17.554688-7.898437-17.554688-17.554687zm0 0" fill="#ffde55"/><path d="m7.5 358.082031c0-9.652343 7.898438-17.550781 17.554688-17.550781h28.226562c9.65625 0 17.554688 7.898438 17.554688 17.550781 0 9.65625-7.898438 17.554688-17.554688 17.554688h-28.226562c-9.65625 0-17.554688-7.898438-17.554688-17.554688zm0 0" fill="#ffde55"/><path d="m94.566406 87.421875c0 4.140625-3.355468 7.5-7.5 7.5-4.140625 0-7.5-3.359375-7.5-7.5 0-4.144531 3.359375-7.5 7.5-7.5 4.144532 0 7.5 3.355469 7.5 7.5zm0 0"/><path d="m94.566406 424.585938c0 4.140624-3.355468 7.5-7.5 7.5-4.140625 0-7.5-3.359376-7.5-7.5 0-4.144532 3.359375-7.5 7.5-7.5 4.144532 0 7.5 3.355468 7.5 7.5zm0 0"/><path d="m432.433594 87.421875c0 4.140625-3.359375 7.5-7.5 7.5-4.144532 0-7.5-3.359375-7.5-7.5 0-4.144531 3.355468-7.5 7.5-7.5 4.140625 0 7.5 3.355469 7.5 7.5zm0 0"/><path d="m432.433594 424.585938c0 4.140624-3.359375 7.5-7.5 7.5-4.144532 0-7.5-3.359376-7.5-7.5 0-4.144532 3.355468-7.5 7.5-7.5 4.140625 0 7.5 3.355468 7.5 7.5zm0 0"/><path d="m344.15625 258.300781v-12.449219c0-4.144531-3.355469-7.5-7.5-7.5-4.140625 0-7.5 3.355469-7.5 7.5v12.449219c0 4.140625 3.359375 7.5 7.5 7.5 4.144531 0 7.5-3.359375 7.5-7.5zm0 0"/><path d="m182.84375 258.300781v-12.449219c0-4.144531-3.359375-7.5-7.5-7.5-4.144531 0-7.5 3.355469-7.5 7.5v12.449219c0 4.140625 3.355469 7.5 7.5 7.5 4.140625 0 7.5-3.359375 7.5-7.5zm0 0"/><path d="m256 273.652344c9.707031 0 19.414062-3.140625 27.515625-9.421875 3.273437-2.539063 3.867187-7.25 1.328125-10.523438-2.539062-3.273437-7.25-3.867187-10.523438-1.328125-10.785156 8.363282-25.851562 8.363282-36.640624 0-3.273438-2.539062-7.984376-1.945312-10.523438 1.328125-2.539062 3.273438-1.941406 7.984375 1.332031 10.523438 8.097657 6.28125 17.804688 9.421875 27.511719 9.421875zm0 0"/><path d="m142.929688 418.496094h226.144531c27.25 0 49.421875-22.167969 49.421875-49.421875v-226.144531c0-27.25-22.171875-49.421876-49.421875-49.421876h-226.144531c-27.253907 0-49.425782 22.171876-49.425782 49.421876v140.757812c0 4.144531 3.359375 7.5 7.5 7.5 4.144532 0 7.5-3.355469 7.5-7.5v-140.757812c0-18.980469 15.441406-34.421876 34.425782-34.421876h226.144531c18.980469 0 34.421875 15.441407 34.421875 34.421876v226.144531c0 18.980469-15.441406 34.421875-34.421875 34.421875h-226.144531c-18.980469 0-34.425782-15.441406-34.425782-34.421875v-55.519531c0-4.144532-3.355468-7.5-7.5-7.5-4.140625 0-7.5 3.355468-7.5 7.5v55.519531c0 27.25 22.171875 49.421875 49.425782 49.421875zm0 0"/><path d="m486.945312 247.027344c13.816407 0 25.054688-11.238282 25.054688-25.050782 0-13.816406-11.238281-25.054687-25.054688-25.054687h-10.433593v-17.949219h10.433593c13.816407 0 25.054688-11.238281 25.054688-25.050781 0-13.816406-11.238281-25.054687-25.054688-25.054687h-28.226562c-13.816406 0-25.054688 11.238281-25.054688 25.054687 0 26.203125 27.851563 25.050781 27.851563 25.050781v17.949219s-27.851563-1.082031-27.851563 25.054687c0 26.132813 27.851563 25.050782 27.851563 25.050782v17.949218s-27.851563-2.390624-27.851563 25.050782c0 27.449218 27.851563 25.054687 27.851563 25.054687v17.949219s-27.851563-1.980469-27.851563 25.050781 27.851563 25.054688 27.851563 25.054688v28.667969c0 27.410156-22.300781 49.710937-49.714844 49.710937h-28.664062s-.128907-27.851563-25.054688-27.851563-25.054687 27.851563-25.054687 27.851563h-17.949219s.148437-27.851563-25.050781-27.851563c-25.203125 0-25.054688 27.851563-25.054688 27.851563h-17.949218s.425781-27.851563-25.050782-27.851563c-25.476562 0-25.054687 27.851563-25.054687 27.851563h-17.945313s2.078125-27.851563-25.054687-27.851563c-27.132813 0-25.054688 27.851563-25.054688 27.851563h-28.667969c-27.410156 0-49.710937-22.300781-49.710937-49.710937v-28.667969s27.851563.371093 27.851563-25.054688c0-25.421875-27.851563-25.050781-27.851563-25.050781v-17.949219s27.851563.992188 27.851563-25.054687c0-26.042969-27.851563-25.050782-27.851563-25.050782v-17.949218s27.851563.578125 27.851563-25.050782c0-25.632812-27.851563-25.054687-27.851563-25.054687v-17.949219s27.851563.507813 27.851563-25.050781c0-25.5625-27.851563-25.054687-27.851563-25.054687v-28.667969c0-27.410157 22.300781-49.710938 49.710937-49.710938h28.667969s-2.132812 27.851563 25.054688 27.851563 25.054687-27.851563 25.054687-27.851563h17.945313s-1.054688 27.851563 25.054687 27.851563c26.105469 0 25.050782-27.851563 25.050782-27.851563h17.949218s-1.257812 27.851563 25.054688 27.851563 25.050781-27.851563 25.050781-27.851563h17.949219s.144531 27.851563 25.054687 27.851563c26.84375 0 25.054688-27.851563 25.054688-27.851563h28.664062c27.414063 0 49.714844 22.300781 49.714844 49.710938 0 0-.65625 11.226562 7.5 11.226562 8.152344 0 7.5-11.226562 7.5-11.226562 0-35.679688-29.03125-64.710938-64.714844-64.710938h-28.664062v-10.433593c0-13.8125-11.242188-25.05078175-25.054688-25.05078175-13.816406 0-25.054687 11.23828175-25.054687 25.05078175v10.433593h-17.949219v-10.433593c0-13.8125-11.234375-25.05078175-25.050781-25.05078175-13.8125 0-25.054688 11.23828175-25.054688 25.05078175v10.433593h-17.949218v-10.433593c0-13.8125-11.238282-25.05078175-25.050782-25.05078175s-25.050781 11.23828175-25.050781 25.05078175v10.433593h-17.949219v-10.433593c0-13.8125-11.238281-25.05078175-25.054687-25.05078175-13.8125 0-25.054688 11.23828175-25.054688 25.05078175v10.433593h-28.664062c-35.683594 0-64.714844 29.03125-64.714844 64.710938v28.667969h-10.429687c-13.816407 0-25.054688 11.238281-25.054688 25.054687 0 13.8125 11.238281 25.050781 25.054688 25.050781h10.433593v17.949219h-10.433593c-13.816407 0-25.054688 11.238281-25.054688 25.054687 0 13.8125 11.238281 25.050782 25.054688 25.050782h10.433593v17.949218h-10.433593c-13.816407 0-25.054688 11.238282-25.054688 25.050782 0 13.816406 11.238281 25.054687 25.054688 25.054687h10.433593v17.949219h-10.433593c-13.816407 0-25.054688 11.238281-25.054688 25.054688 0 13.8125 11.238281 25.050781 25.054688 25.050781h10.433593v28.667969c0 35.683593 29.027344 64.710937 64.710938 64.710937h28.667969v10.433594c0 13.816406 11.238281 25.054687 25.054687 25.054687 9.019531 0 17.390625-4.910156 21.839844-12.808594 2.03125-3.609374.753906-8.183593-2.855469-10.214843-3.609375-2.035157-8.183594-.753907-10.214844 2.855469-1.796875 3.1875-5.15625 5.167968-8.769531 5.167968-5.542969 0-10.054687-4.511718-10.054687-10.054687v-28.230469c0-5.542969 4.511718-10.050781 10.054687-10.050781s10.050781 4.507812 10.050781 10.050781v10.296875c0 4.140625 3.359375 7.5 7.5 7.5h25.449219v10.433594c0 13.816406 11.238281 25.054687 25.054687 25.054687 13.8125 0 25.050782-11.238281 25.050782-25.054687v-10.433594h17.949218v10.433594c0 13.816406 11.238282 25.054687 25.054688 25.054687 13.8125 0 25.050781-11.238281 25.050781-25.054687v-10.433594h17.949219v10.433594c0 13.816406 11.238281 25.054687 25.054688 25.054687 13.8125 0 25.050781-11.238281 25.050781-25.054687v-10.433594h28.667969c35.683593 0 64.710937-29.027344 64.710937-64.710937v-28.667969h10.433594c13.816406 0 25.054687-11.238281 25.054687-25.050781 0-13.816407-11.238281-25.054688-25.054687-25.054688h-10.433594v-17.949219h10.433594c13.816406 0 25.054687-11.238281 25.054687-25.054687 0-13.8125-11.238281-25.050782-25.054687-25.050782h-10.433594v-17.949218zm-38.28125-93.105469c0-5.542969 4.511719-10.054687 10.054688-10.054687h28.226562c5.542969 0 10.054688 4.511718 10.054688 10.054687s-4.511719 10.050781-10.054688 10.050781h-28.226562c-5.542969 0-10.054688-4.507812-10.054688-10.050781zm-100.636718-128.867187c0-5.542969 4.511718-10.050782 10.054687-10.050782s10.054688 4.507813 10.054688 10.050782v17.914062c0 .007812-.003907.015625-.003907.019531 0 .007813.003907.015625.003907.019531v10.277344c0 5.542969-4.511719 10.054688-10.054688 10.054688s-10.054687-4.511719-10.054687-10.054688zm-68.050782 0c0-5.542969 4.507813-10.050782 10.050782-10.050782 5.542968 0 10.054687 4.507813 10.054687 10.050782v28.230468c0 5.542969-4.511719 10.054688-10.054687 10.054688-5.542969 0-10.050782-4.511719-10.050782-10.054688zm-68.054687 0c0-5.542969 4.507813-10.050782 10.050781-10.050782 5.542969 0 10.054688 4.507813 10.054688 10.050782v28.230468c0 5.542969-4.511719 10.054688-10.054688 10.054688-5.542968 0-10.050781-4.511719-10.050781-10.054688zm-68.058594 0c0-5.542969 4.511719-10.050782 10.054688-10.050782s10.054687 4.507813 10.054687 10.050782v28.230468c0 5.542969-4.511718 10.054688-10.054687 10.054688s-10.054688-4.511719-10.054688-10.054688zm-128.863281 128.867187c0-5.542969 4.511719-10.054687 10.054688-10.054687h28.226562c5.542969 0 10.054688 4.511718 10.054688 10.054687s-4.511719 10.050781-10.054688 10.050781h-28.226562c-5.542969 0-10.054688-4.507812-10.054688-10.050781zm0 68.054687c0-5.542968 4.511719-10.054687 10.054688-10.054687h28.226562c5.542969 0 10.054688 4.511719 10.054688 10.054687 0 5.542969-4.511719 10.050782-10.054688 10.050782h-28.226562c-5.542969 0-10.054688-4.507813-10.054688-10.050782zm0 68.050782c0-5.542969 4.511719-10.050782 10.054688-10.050782h28.226562c5.542969 0 10.054688 4.507813 10.054688 10.050782 0 5.542968-4.511719 10.054687-10.054688 10.054687h-28.226562c-5.542969 0-10.054688-4.511719-10.054688-10.054687zm0 68.058594c0-5.546876 4.511719-10.054688 10.054688-10.054688h28.226562c5.542969 0 10.054688 4.507812 10.054688 10.054688 0 5.542968-4.511719 10.050781-10.054688 10.050781h-28.226562c-5.542969 0-10.054688-4.507813-10.054688-10.050781zm217.023438 128.863281c0 5.542969-4.507813 10.054687-10.050782 10.054687-5.542968 0-10.054687-4.511718-10.054687-10.054687v-28.230469c0-5.542969 4.511719-10.054688 10.054687-10.054688 5.542969 0 10.050782 4.511719 10.050782 10.054688zm68.054687 0c0 5.542969-4.507813 10.054687-10.050781 10.054687-5.542969 0-10.054688-4.511718-10.054688-10.054687v-28.230469c0-5.542969 4.511719-10.054688 10.054688-10.054688 5.542968 0 10.050781 4.511719 10.050781 10.054688zm68.058594 0c0 5.542969-4.511719 10.054687-10.054688 10.054687s-10.054687-4.511718-10.054687-10.054687v-28.230469c0-5.542969 4.511718-10.054688 10.054687-10.054688s10.054688 4.511719 10.054688 10.054688zm128.863281-128.863281c0 5.542968-4.511719 10.050781-10.054688 10.050781h-28.226562c-5.542969 0-10.054688-4.507813-10.054688-10.050781 0-5.546876 4.511719-10.054688 10.054688-10.054688h28.226562c5.542969 0 10.054688 4.507812 10.054688 10.054688zm0-68.058594c0 5.542968-4.511719 10.054687-10.054688 10.054687h-28.226562c-5.542969 0-10.054688-4.511719-10.054688-10.054687 0-5.542969 4.511719-10.050782 10.054688-10.050782h28.226562c5.542969 0 10.054688 4.507813 10.054688 10.050782zm-48.335938-68.050782c0-5.542968 4.511719-10.054687 10.054688-10.054687h28.226562c5.542969 0 10.054688 4.511719 10.054688 10.054687 0 5.542969-4.511719 10.050782-10.054688 10.050782h-28.226562c-5.542969 0-10.054688-4.507813-10.054688-10.050782zm0 0"/></svg>