<svg xmlns="http://www.w3.org/2000/svg" xmlns:xlink="http://www.w3.org/1999/xlink" viewBox="0 0 228 81"><g id="Web_1920_1" class="cls-1" data-name="Web 1920 – 1"><g id="back" class="cls-2"><path d="M 193.8457183837891 192.7185211181641 L -31.89351081848145 192.7185211181641 C -29.75262260437012 191.1327514648438 -25.11797142028809 187.5496368408203 -19.83113098144531 182.5368194580078 C -15.57692527770996 178.5030822753906 -11.73574829101562 174.3439636230469 -8.414278030395508 170.1750183105469 C -4.256836891174316 164.9568481445312 -0.9056602120399475 159.7071990966797 1.546251535415649 154.5719299316406 C 4.081839561462402 149.2612915039062 5.830869197845459 142.6899261474609 6.744781017303467 135.0403747558594 C 7.507810592651367 128.6536102294922 7.546016216278076 122.8197860717773 7.571280956268311 118.9594345092773 C 7.580539226531982 117.5448303222656 7.589460849761963 116.181884765625 7.641948699951172 115.3156433105469 C 14.20421981811523 128.6260070800781 24.23849105834961 139.8666076660156 36.68737030029297 147.8452911376953 C 43.02145767211914 151.9049072265625 49.87616348266602 155.0459289550781 57.0610466003418 157.1811065673828 C 64.47163391113281 159.3833465576172 72.18943023681641 160.5 79.99998474121094 160.5 C 86.57630920410156 160.5 93.28545379638672 159.6256713867188 99.94104766845703 157.9012908935547 C 107.011100769043 156.0695190429688 113.7831344604492 153.332763671875 120.0690460205078 149.7670440673828 C 126.8591918945312 145.915283203125 132.9847259521484 141.1434326171875 138.2755126953125 135.5839996337891 C 143.6870727539062 129.8976440429688 148.2272033691406 123.3783416748047 151.7856597900391 116.1873168945312 C 151.6572570800781 119.3212509155273 151.4929351806641 125.0233688354492 152.2689208984375 131.6800231933594 C 153.3094635009766 140.6062927246094 155.6930694580078 148.3204040527344 159.353515625 154.6080474853516 C 161.9762878417969 159.1132202148438 165.480224609375 163.9680480957031 169.7679595947266 169.0376739501953 C 173.1933746337891 173.087646484375 177.124755859375 177.2841644287109 181.4528961181641 181.5106353759766 C 186.9875183105469 186.9152374267578 191.7788543701172 191.0001678466797 193.8457183837891 192.7185211181641 Z" class="cls-3" transform="translate(33 -113)"/></g></g></svg>