<svg xmlns="http://www.w3.org/2000/svg" xmlns:xlink="http://www.w3.org/1999/xlink" x="0" y="0" enable-background="new 0 0 4291.667 2691.667" version="1.1" viewBox="0 0 4291.667 2691.667" xml:space="preserve"><g id="Layer_2"><g><path fill="#1D4051" d="M4192.379,2399.952c0-0.502-0.046-1.041-0.046-1.535H63.519c0,0.494,0,1.033,0,1.535 c0,51.125,9.52,98.719,25.894,138.598h4077.043C4182.847,2498.67,4192.379,2451.077,4192.379,2399.952z"/><path fill="#1E4D6C" d="M89.413,2538.549c28.648,69.773,78.294,115.918,134.761,115.918H4031.63 c56.464,0,106.149-46.145,134.826-115.918H89.413z"/></g><path fill="#7CCDD4" d="M451.59,222.821v718.853v534.991v714.146h3352.669v-420.775V1497.52V222.821H451.59z"/><path fill="#DEF1F3" d="M1524.76,2526.434c0,32.988,26.744,59.682,59.729,59.682H2671.36c33.028,0,59.774-26.693,59.774-59.682l0,0 c0-32.973-26.746-59.736-59.774-59.736H1584.488C1551.504,2466.698,1524.76,2493.461,1524.76,2526.434L1524.76,2526.434z"/><path fill="#BEBBBB" d="M2068.201,143.55c0,32.988,26.74,59.736,59.771,59.736c32.935,0,59.678-26.748,59.678-59.736 c0-32.972-26.743-59.705-59.678-59.705C2094.941,83.845,2068.201,110.578,2068.201,143.55z"/><g><polygon fill="none" points="451.59 222.821 451.59 2190.811 3804.259 2190.811 3804.259 2188.932 457.154 222.821"/><path fill="#1D4051" d="M3804.259,222.821v1966.111l129.056,75.811c31.754-41.328,50.923-94.848,50.923-153.313V302.234 c0-130.88-95.872-236.93-214.146-236.93H485.796c-63.916,0-121.272,30.96-160.514,80.055l131.872,77.462H3804.259z"/><path fill="#1E4D6C" d="M3804.259,2188.932v1.879H451.59V222.821h5.564l-131.872-77.462 c-33.397,41.784-53.675,96.698-53.675,156.875V2111.43c0,130.787,95.875,236.885,214.189,236.885h3284.295 c65.402,0,123.943-32.453,163.224-83.572L3804.259,2188.932z"/></g></g></svg>