<svg xmlns="http://www.w3.org/2000/svg" xmlns:xlink="http://www.w3.org/1999/xlink" id="rocket" preserveAspectRatio="xMidYMin" version="1.1" viewBox="0 0 1160.602 2800.274"><style>path#fire1,path#fire2,path#fire3{transform-origin:center;animation:flame .5s 1.5s ease-in-out forwards infinite}path#fire3{transform:scale(.6)}path#fire2{transform:scale(.7)}path#fire1{transform:scale(.8)}</style><path id="fire3" fill="#F38020" d="M846.272,2067.201c0,187.092-265.063,439.073-265.063,439.073s-265.054-251.981-265.054-439.073 c0-187.106,118.666-238.486,265.054-238.486C727.593,1828.715,846.272,1880.095,846.272,2067.201z"/><path id="fire2" fill="#EEB31F" d="M764.137,2030.198c0,129.136-182.927,303.048-182.927,303.048s-182.948-173.912-182.948-303.048 c0-129.148,81.905-164.599,182.948-164.599C682.229,1865.6,764.137,1901.05,764.137,2030.198z"/><path id="fire1" fill="#F7CB6B" d="M687.163,1968.363c0,74.801-105.953,175.537-105.953,175.537s-105.964-100.736-105.964-175.537 c0-74.802,47.451-95.343,105.964-95.343C639.722,1873.021,687.163,1893.562,687.163,1968.363z"/><g><g><path fill="#E93859" d="M364.968,1397.741c0,0-364.968,191.602-364.968,606.768c0,0,22.808,45.605,59.294-9.143 c36.505-54.732,68.443-205.281,301.11-205.281L364.968,1397.741z"/><path fill="#BB3548" d="M795.604,1397.741c0,0,364.998,191.602,364.998,606.768c0,0-22.825,45.605-59.311-9.143 c-36.518-54.732-68.442-205.281-301.12-205.281L795.604,1397.741z"/></g><g><path fill="#DEF1F3" d="M985.521,994.331c0-169.975-28.729-329.979-71.496-469.927H580.299V666.42 c123.47,0,223.55,100.094,223.55,223.552c0,123.473-100.08,223.566-223.55,223.566v718.485h218.388 C911.059,1655.271,985.521,1346.134,985.521,994.331z"/><path fill="#DEF1F3" d="M356.739,889.972c0-123.458,100.078-223.552,223.56-223.552V524.403H246.572 c-42.792,139.948-71.491,299.952-71.491,469.927c0,351.803,74.459,660.941,186.806,837.693h218.412v-718.485 C456.816,1113.538,356.739,1013.444,356.739,889.972z"/><path fill="#E6C536" d="M364.998,1832.691c-5.637,0-10.215,4.565-10.215,10.217v47.671c0,5.633,4.578,10.213,10.215,10.213 h215.301v-68.102H364.998z"/><path fill="#CDAF2F" d="M795.377,1832.691H580.299v68.102h215.078c5.648,0,10.239-4.58,10.239-10.213v-47.671 C805.616,1837.257,801.025,1832.691,795.377,1832.691z"/><path fill="#CDAF2F" d="M733.468,889.972c0,84.602-68.584,153.186-153.169,153.186v70.38c123.47,0,223.55-100.094,223.55-223.566 c0-123.458-100.08-223.552-223.55-223.552v70.381C664.884,736.801,733.468,805.37,733.468,889.972z"/><path fill="#E6C536" d="M356.739,889.972c0,123.473,100.078,223.566,223.56,223.566v-70.38 c-84.618,0-153.194-68.584-153.194-153.186c0-84.602,68.577-153.171,153.194-153.171V666.42 C456.816,666.42,356.739,766.514,356.739,889.972z"/><path fill="#82CFD0" d="M733.468,889.972c0-84.602-68.584-153.171-153.169-153.171v306.357 C664.884,1043.158,733.468,974.574,733.468,889.972z"/><path fill="#A5DBE2" d="M427.104,889.972c0,84.602,68.577,153.186,153.194,153.186V736.801 C495.681,736.801,427.104,805.37,427.104,889.972z"/></g></g><g><path fill="#BB3548" d="M580.299,0v524.403h333.727C818.598,212.255,653.188,0,580.299,0z"/><path fill="#E93859" d="M580.299,0c-72.894,0-238.311,212.255-333.727,524.403h333.727V0L580.299,0z"/><path fill="#BB3548" d="M594.333,1511.33c-1.113-0.342-2.282-0.556-3.508-0.556h-0.287h-10.239v512.08h11.497h0.313 c6.42,0,11.638-5.209,11.638-11.628v-15.564l0.429-22.465l32.295-411.769C636.47,1519.688,601.466,1513.129,594.333,1511.33z"/><path fill="#E93859" d="M568.799,1510.774h-0.313c-1.227,0-2.395,0.214-3.509,0.556c-2.054,0.513-4.337,1.414-6.591,2.725 c-12.694,4.136-34.291,15.22-34.291,47.971l32.325,412.186l0.425,20.854v15.55c0,4.891,2.997,9.056,7.276,10.784 c1.683,0.925,3.594,1.454,5.62,1.454h0.314h10.244v-512.08H568.799z"/></g></svg>