<svg xmlns="http://www.w3.org/2000/svg" xmlns:xlink="http://www.w3.org/1999/xlink" id="BACKGROUND_2" width="750" height="500" x="0" y="0" enable-background="new 0 0 750 500" version="1.1" viewBox="0 0 750 500" xml:space="preserve"><style>@keyframes pulseEarth{0%{r:45;opacity:.3}50%{r:60;opacity:0}}@keyframes pulseSun{0%{r:30;opacity:.2}50%{r:40;opacity:0}}#earth{animation:pulseEarth 1s cubic-bezier(.24,0,.38,1) infinite}#sun{animation:pulseSun 1s cubic-bezier(.24,0,.38,1) infinite}</style><g><g><defs><rect id="SVGID_1_" width="750" height="500"/></defs><clipPath id="SVGID_2_"><use overflow="visible" xlink:href="#SVGID_1_"/></clipPath><rect width="750" height="500" fill="#351A4F" clip-path="url(#SVGID_2_)"/><path fill="#412061" d="M867.238-34.281c48.783,115.459,33.229,246.689,16.821,370.953 c-9.146,69.267-19.984,142.557-64.591,196.331c-45.422,54.758-118.743,79.249-189.695,84.483 c-70.952,5.235-141.948-6.104-212.987-9.981c-106.064-5.789-213.047,5.195-315.654,32.669 c-38.546,10.321-76.877,23.023-116.689,25.721c-39.813,2.698-82.384-5.975-111.482-33.28 c-44.608-41.86-44.609-111.798-37.771-172.588c13.363-118.787,32.495-242.875,70.816-356.102 c17.031-50.323,74.067-77.843,127.192-78.27c53.125-0.427,103.82,20.195,153.612,38.723 c49.791,18.528,102.658,35.508,155.175,27.482c34.474-5.268,67.534-21.204,102.378-19.759 c40.247,1.67,75.686,26.12,114.523,36.812c56.072,15.438,116.996,1.08,168.109-26.668 c51.112-27.748,94.171-67.953,136.618-107.711" clip-path="url(#SVGID_2_)"/><path fill="#5E2F8C" d="M1067.844,399.023c-34.335,21.278-79.825,15.799-115.927-2.318 c-36.103-18.118-65.329-47.092-95.682-73.745c-30.352-26.653-63.89-52.103-103.382-60.588 c-97.783-21.01-192.156,67.109-291.281,53.806C355.159,301.896,291.315,178.721,186.1,157.335 c-51.999-10.569-106.563,6.286-151.364,34.718s-81.498,67.704-117.666,106.53c13.642,29.664,20.379,58.366,23.106,90.902 c10.342-80.733,66.254-154.064,141.37-185.41c75.115-31.345,166.566-19.509,231.228,29.926 c52.226,39.929,90.01,103.188,153.35,120.793c44.761,12.441,92.49-1.355,135.356-19.267 c42.865-17.912,84.919-40.305,131.035-45.926c53.314-6.5,109.116,11.342,148.771,47.565 c18.384,16.794,33.229,37.077,50.798,54.722s39.019,33.083,63.705,36.331S1059.521,422.49,1067.844,399.023z" clip-path="url(#SVGID_2_)"/><path fill="#4D2673" d="M932.793,171.001c-57.962,51.491-145.227,67.378-217.617,39.62 c-50.91-19.522-99.514-59.333-153.043-48.958c-51.027,9.89-88.682,63.946-140.637,62.419 c-32.106-0.944-58.991-23.26-83.793-43.671c-54.115-44.537-117.021-87.158-187.082-85.333 c-44.019,1.146-86.383,20.405-120.145,48.673c-33.762,28.269-61.695,68.174-82.067,107.211 c-1.144-40.131-1.866-81.271-11.525-120.239c73.235-57.789,176.365-75.304,264.572-44.933 c76.948,26.494,146.165,87.057,227.334,81.193c36.749-2.655,71.641-19.173,108.473-20.121 c42.441-1.092,82.287,18.419,123.262,29.536c107.74,29.23,230.081-3.746,308.535-83.164 C962.717,121.946,954.777,151.471,932.793,171.001z" clip-path="url(#SVGID_2_)"/><g clip-path="url(#SVGID_2_)"><path fill="#4D2673" d="M-22.526,235.459c0,0,0.44-0.987,1.295-2.901c0.879-1.903,2.069-4.777,3.829-8.433 c3.684-7.237,9.314-17.801,18.314-30.052c8.979-12.234,21.498-26.004,38.041-39.265c2.071-1.648,4.274-3.198,6.458-4.841 c1.099-0.813,2.206-1.633,3.32-2.458c1.157-0.765,2.323-1.535,3.497-2.312c1.177-0.774,2.36-1.554,3.554-2.339 c1.207-0.762,2.362-1.628,3.638-2.316c2.509-1.446,5.053-2.912,7.629-4.397c10.454-5.667,21.908-10.804,34.315-14.897 c3.128-0.939,6.288-1.889,9.479-2.847c3.233-0.77,6.499-1.546,9.796-2.331c6.643-1.347,13.527-2.563,20.522-3.236 c14.004-1.483,28.646-1.423,43.512,0.223c1.857,0.214,3.722,0.429,5.592,0.645c1.869,0.228,3.722,0.612,5.593,0.912 c1.867,0.32,3.741,0.641,5.621,0.963c1.88,0.318,3.729,0.821,5.604,1.225c1.869,0.433,3.744,0.868,5.624,1.303 c1.881,0.435,3.72,1.053,5.589,1.573c1.863,0.543,3.732,1.089,5.605,1.635c1.87,0.558,3.695,1.275,5.552,1.907 c14.816,5.166,29.371,12.135,43.057,20.97l2.579,1.642l1.287,0.828l1.242,0.898c1.656,1.198,3.316,2.398,4.979,3.601 c1.659,1.193,3.351,2.401,4.932,3.703c1.609,1.272,3.223,2.544,4.797,3.894c6.343,5.31,12.468,10.925,18.468,16.745 c12.015,11.622,23.495,24.037,35.83,35.763c6.168,5.851,12.533,11.572,19.252,16.858c6.717,5.292,13.777,10.201,21.207,14.511 c7.442,4.278,15.269,7.936,23.416,10.663c8.142,2.728,16.616,4.5,25.175,4.987c8.55,0.508,17.182-0.339,25.489-2.306 c8.345-1.941,16.39-5.026,24.134-8.666c15.51-7.318,29.818-16.824,44.129-26.049c7.152-4.631,14.341-9.179,21.686-13.421 c7.348-4.23,14.861-8.164,22.684-11.339c7.81-3.18,15.928-5.618,24.223-6.848c8.276-1.242,16.745-1.24,24.869,0.101 c1.993,0.229,4.036,0.767,6.061,1.222c2.052,0.409,3.987,1.065,5.946,1.661c1.975,0.55,3.864,1.316,5.766,2.038 c1.918,0.686,3.752,1.545,5.591,2.381c7.344,3.371,14.221,7.444,20.787,11.752c13.135,8.636,25.078,18.212,37.314,26.529 c24.438,16.659,50.543,27.721,75.5,34.256c12.491,3.267,24.702,5.471,36.401,6.802c11.704,1.31,22.891,1.782,33.394,1.614 c10.502-0.176,20.327-0.934,29.341-2.161c9.017-1.214,17.226-2.823,24.591-4.489c14.699-3.506,25.925-7.503,33.45-10.485 c1.876-0.763,3.556-1.384,4.968-2.013c1.414-0.62,2.604-1.143,3.563-1.563c1.918-0.842,2.907-1.275,2.907-1.275l0.128,0.271 c0,0-0.982,0.453-2.887,1.331c-0.952,0.439-2.135,0.984-3.54,1.633c-1.403,0.655-3.073,1.31-4.939,2.108 c-7.486,3.13-18.666,7.348-33.369,11.146c-14.71,3.673-32.991,6.864-54.17,7.439c-10.578,0.289-21.868,0.011-33.687-1.244 c-11.815-1.249-24.16-3.377-36.808-6.578c-12.657-3.16-25.557-7.589-38.475-13.177c-6.437-2.844-12.895-5.953-19.236-9.51 c-3.204-1.708-6.342-3.633-9.521-5.528c-1.592-0.946-3.101-1.977-4.664-2.966l-2.332-1.502c-0.826-0.521-1.553-1.051-2.337-1.578 c-12.376-8.386-24.329-17.934-37.313-26.435c-6.488-4.242-13.24-8.221-20.388-11.487c-1.79-0.809-3.574-1.644-5.431-2.302 c-1.838-0.707-3.666-1.459-5.567-1.995c-1.885-0.583-3.769-1.231-5.683-1.617c-1.913-0.438-3.784-0.959-5.827-1.205 c-7.874-1.335-15.954-1.367-23.968-0.206c-8.015,1.153-15.914,3.48-23.571,6.559c-15.351,6.189-29.664,15.227-44.041,24.296 c-14.385,9.078-28.868,18.512-44.646,25.773c-7.878,3.611-16.082,6.67-24.605,8.568c-8.529,1.931-17.299,2.702-26.019,2.104 c-8.716-0.585-17.304-2.478-25.518-5.321c-8.221-2.845-16.077-6.623-23.534-11c-7.467-4.369-14.547-9.332-21.28-14.678 c-6.743-5.347-13.089-11.096-19.255-16.988c-12.328-11.782-23.939-24.076-35.966-35.631c-6.014-5.77-12.14-11.368-18.515-16.534 c-1.57-1.313-3.201-2.566-4.828-3.819c-1.605-1.288-3.264-2.438-4.939-3.612c-1.665-1.172-3.326-2.343-4.984-3.51l-1.242-0.875 l-1.288-0.805l-2.579-1.596c-13.683-8.587-28.182-15.313-42.902-20.246c-1.845-0.603-3.656-1.291-5.514-1.82 c-1.859-0.518-3.714-1.034-5.563-1.549c-1.855-0.491-3.679-1.081-5.543-1.487c-1.863-0.412-3.721-0.823-5.572-1.232 c-1.854-0.392-3.684-0.882-5.543-1.189c-1.858-0.311-3.711-0.621-5.558-0.93c-1.85-0.289-3.681-0.663-5.527-0.879 c-1.849-0.206-3.691-0.411-5.527-0.615c-14.693-1.6-29.136-1.503-42.958-0.123c-6.939,0.637-13.624,1.786-20.213,3.085 c-3.274,0.762-6.519,1.517-9.73,2.264c-3.154,0.931-6.278,1.854-9.37,2.766c-12.269,3.982-23.611,9.004-33.976,14.558 c-2.555,1.457-5.077,2.894-7.565,4.313c-2.471,1.447-4.806,3.045-7.164,4.527c-1.172,0.754-2.335,1.503-3.489,2.247 c-1.113,0.805-2.218,1.603-3.314,2.396c-2.181,1.601-4.382,3.11-6.453,4.719c-16.562,12.926-29.083,26.498-38.242,38.474 c-9.173,12.009-14.959,22.431-18.776,29.553c-1.845,3.606-3.107,6.455-4.03,8.334c-0.9,1.892-1.365,2.869-1.365,2.869 L-22.526,235.459z"/></g><g clip-path="url(#SVGID_2_)"><path fill="#4D2673" d="M-85.494,355.461c0,0,0.44-0.987,1.295-2.9c0.878-1.903,2.069-4.777,3.829-8.433 c3.684-7.238,9.314-17.801,18.314-30.053c8.979-12.234,21.498-26.004,38.04-39.265c2.072-1.648,4.275-3.198,6.459-4.841 c1.099-0.813,2.205-1.633,3.32-2.458c1.157-0.766,2.323-1.535,3.497-2.312c1.177-0.774,2.36-1.554,3.554-2.339 c1.207-0.763,2.362-1.628,3.638-2.316c2.509-1.446,5.052-2.912,7.628-4.397c10.455-5.667,21.909-10.805,34.316-14.897 c3.127-0.939,6.287-1.889,9.479-2.848c3.233-0.769,6.499-1.546,9.796-2.33c6.643-1.347,13.527-2.563,20.522-3.237 c14.004-1.483,28.645-1.423,43.511,0.223c1.858,0.214,3.723,0.429,5.593,0.645c1.869,0.227,3.722,0.611,5.593,0.911 c1.867,0.32,3.741,0.641,5.621,0.963c1.88,0.319,3.729,0.821,5.604,1.225c1.869,0.433,3.744,0.867,5.624,1.303 c1.881,0.435,3.72,1.053,5.589,1.573c1.863,0.543,3.731,1.089,5.605,1.635c1.87,0.558,3.695,1.275,5.552,1.907 c14.816,5.167,29.371,12.136,43.057,20.971l2.579,1.642l1.287,0.828l1.242,0.897c1.656,1.198,3.315,2.398,4.979,3.602 c1.659,1.193,3.351,2.401,4.932,3.703c1.608,1.272,3.223,2.544,4.796,3.894c6.343,5.31,12.468,10.924,18.469,16.744 c12.015,11.622,23.495,24.037,35.83,35.764c6.168,5.851,12.533,11.572,19.251,16.858c6.718,5.292,13.778,10.201,21.208,14.511 c7.442,4.278,15.269,7.936,23.416,10.664c8.142,2.727,16.616,4.5,25.174,4.986c8.551,0.508,17.183-0.338,25.49-2.306 c8.345-1.941,16.389-5.025,24.134-8.665c15.51-7.318,29.817-16.825,44.128-26.05c7.152-4.631,14.342-9.179,21.687-13.421 c7.348-4.23,14.861-8.164,22.684-11.339c7.81-3.18,15.928-5.617,24.222-6.848c8.277-1.242,16.746-1.24,24.87,0.101 c1.993,0.229,4.036,0.767,6.061,1.223c2.052,0.409,3.987,1.064,5.946,1.661c1.975,0.55,3.864,1.315,5.766,2.037 c1.918,0.686,3.752,1.546,5.591,2.381c7.344,3.371,14.22,7.444,20.787,11.752c13.135,8.637,25.078,18.213,37.314,26.529 c24.438,16.659,50.542,27.722,75.5,34.256c12.491,3.267,24.702,5.472,36.401,6.802c11.703,1.31,22.891,1.782,33.393,1.615 c10.503-0.177,20.328-0.935,29.342-2.162c9.017-1.214,17.225-2.822,24.591-4.489c14.699-3.506,25.925-7.502,33.449-10.485 c1.877-0.763,3.557-1.384,4.968-2.013c1.415-0.62,2.605-1.143,3.564-1.563c1.918-0.841,2.907-1.275,2.907-1.275l0.128,0.271 c0,0-0.982,0.453-2.887,1.331c-0.952,0.439-2.136,0.984-3.541,1.633c-1.402,0.656-3.072,1.31-4.938,2.108 c-7.486,3.13-18.666,7.348-33.369,11.146c-14.71,3.673-32.991,6.864-54.17,7.439c-10.578,0.289-21.868,0.012-33.687-1.244 c-11.815-1.249-24.16-3.377-36.808-6.578c-12.657-3.16-25.557-7.589-38.475-13.177c-6.437-2.843-12.895-5.953-19.236-9.51 c-3.204-1.708-6.342-3.633-9.521-5.527c-1.592-0.946-3.101-1.977-4.664-2.967l-2.332-1.502c-0.827-0.521-1.554-1.052-2.337-1.578 c-12.376-8.386-24.329-17.934-37.313-26.436c-6.488-4.242-13.24-8.221-20.388-11.486c-1.79-0.81-3.574-1.644-5.431-2.302 c-1.838-0.707-3.666-1.46-5.567-1.995c-1.885-0.583-3.769-1.231-5.683-1.617c-1.913-0.438-3.784-0.959-5.827-1.204 c-7.875-1.336-15.954-1.367-23.969-0.206c-8.014,1.152-15.913,3.479-23.571,6.559c-15.35,6.189-29.664,15.227-44.04,24.296 c-14.385,9.078-28.868,18.512-44.646,25.773c-7.878,3.611-16.082,6.67-24.605,8.568c-8.529,1.931-17.3,2.702-26.02,2.104 c-8.715-0.585-17.303-2.478-25.517-5.321c-8.221-2.845-16.077-6.623-23.534-11c-7.467-4.37-14.547-9.332-21.28-14.678 c-6.743-5.348-13.089-11.097-19.255-16.988c-12.328-11.782-23.94-24.076-35.966-35.632c-6.015-5.77-12.14-11.367-18.515-16.533 c-1.57-1.313-3.202-2.566-4.828-3.819c-1.605-1.288-3.264-2.438-4.939-3.611c-1.665-1.173-3.326-2.343-4.984-3.511l-1.242-0.875 l-1.288-0.805l-2.579-1.597c-13.683-8.587-28.183-15.313-42.902-20.246c-1.845-0.603-3.657-1.291-5.514-1.82 c-1.859-0.518-3.714-1.034-5.563-1.549c-1.854-0.491-3.678-1.082-5.542-1.488c-1.863-0.412-3.721-0.823-5.572-1.232 c-1.854-0.392-3.684-0.882-5.543-1.189c-1.858-0.311-3.711-0.621-5.558-0.93c-1.85-0.289-3.681-0.663-5.527-0.879 c-1.849-0.206-3.691-0.411-5.527-0.615c-14.693-1.6-29.136-1.503-42.958-0.123c-6.939,0.638-13.624,1.787-20.213,3.085 c-3.274,0.762-6.519,1.517-9.73,2.264c-3.155,0.932-6.278,1.854-9.37,2.766c-12.269,3.983-23.611,9.004-33.976,14.558 c-2.555,1.456-5.077,2.894-7.565,4.313c-2.471,1.446-4.806,3.045-7.164,4.527c-1.172,0.754-2.335,1.503-3.489,2.246 c-1.113,0.805-2.218,1.604-3.314,2.396c-2.181,1.601-4.382,3.11-6.453,4.719c-16.562,12.926-29.083,26.498-38.242,38.475 c-9.173,12.009-14.959,22.431-18.776,29.553c-1.846,3.605-3.107,6.454-4.03,8.334c-0.9,1.893-1.365,2.869-1.365,2.869 L-85.494,355.461z"/></g><path fill="#613160" d="M-94.008,424.595c17.413,19.642,50.744,15.189,71.395-1.015 c20.649-16.205,32.719-40.629,47.482-62.332c14.765-21.703,35.404-42.61,61.572-44.675c38.33-3.023,70.579,35.205,108.963,32.972 c42.418-2.468,76.173-53.565,117.027-41.895c33.749,9.641,42.256,54.479,69.902,76.101 c30.069,23.517,75.598,13.085,105.723-10.358c30.126-23.442,50.298-57.105,75.921-85.4c25.624-28.294,61.493-52.602,99.276-47.166 c51.291,7.379,78.858,62.762,119.468,94.951c36.28,28.758,86.561,38.917,131.16,26.5c-4.085,63.638-55.616,124.473-109.935,157.88 c-54.318,33.408-118.926,46.233-182.547,50.571c-63.622,4.338-127.561,0.797-191.228,4.414 c-78.533,4.461-156.063,19.772-234.428,26.582s-159.442,4.694-232.557-24.317c-33.27-13.201-66.066-33.617-81.609-65.858 C-133.964,479.307-126.449,439.715-94.008,424.595z" clip-path="url(#SVGID_2_)"/><path fill="#814360" d="M801.818,330.652c-26.948-27.49-58.298-53.609-96.178-60.471 c-58.002-10.506-113.606,26.475-156.76,66.631c-43.153,40.155-84.218,87.139-140.583,104.393 c-45.077,13.798-96.358,5.524-134.81-21.75c-18.317-12.992-34.066-30.122-54.707-38.97 c-34.811-14.922-75.283-2.944-108.915,14.473c-33.632,17.416-65.192,40.421-102.09,48.965 c-36.897,8.545-82.464-2.858-97.734-37.518c-10.726,59.223,18.443,116.099,63.652,155.829 c42.044,36.949,95.568,57.92,149.869,72.224c95.717-23.254,194.863-32.321,293.223-26.953 c71.039,3.877,142.035,15.217,212.987,9.981c70.952-5.234,144.273-29.726,189.695-84.483 c31.168-37.574,45.842-84.677,54.979-133.276C847.273,380.563,825.232,354.539,801.818,330.652z" clip-path="url(#SVGID_2_)"/><path fill="#A2545F" d="M-79.317,387.649c0.622,30.563,18.338,60.222,44.955,75.258 c26.616,15.036,61.163,14.901,87.661-0.343c33.021-18.995,55.61-59.679,93.632-62.042c46.935-2.918,75.885,54.423,121.457,66.025 c33.283,8.475,67.247-9.22,101.505-11.661c50.189-3.578,102.741,25.418,149.022,5.676c27.694-11.813,45.601-38.371,63.721-62.417 c18.12-24.047,40.808-48.436,70.694-52.091c21.515-2.632,42.701,6.145,62.006,16c50.19,25.623,95.923,59.95,134.542,100.989 c-13.125,33.937-41.427,60.441-70.756,81.978C668.707,626.101,532.98,672.178,396.024,675.079 c-85.33,1.807-170.135-12.652-253.809-29.485C98.653,636.83,54.773,627.26,14.6,608.269 c-40.174-18.99-76.843-48.424-96.587-88.232C-101.732,480.228-105.643,423.447-79.317,387.649z" clip-path="url(#SVGID_2_)"/><path fill="#C2665F" d="M416.786,607.505c71.039,3.877,142.035,15.217,212.987,9.981 c70.952-5.234,144.273-29.726,189.695-84.483c15.469-18.648,26.872-39.646,35.555-62.008 c-32.237-23.489-65.164-46.531-102.131-61.34c-40.161-16.088-86.264-21.672-126.593-6.012 c-38.253,14.854-66.891,46.557-98.216,73.063c-31.324,26.508-71.244,49.488-111.44,41.234 c-24.185-4.966-45.222-20.774-69.572-24.843c-39.022-6.519-79.114,18.148-117.44,8.331c-22.948-5.878-40.901-23.091-59.759-37.43 c-18.856-14.339-42.454-26.746-65.368-20.736c-22.3,5.848-36.641,27.098-55.999,39.616c-21.684,14.022-50.479,16.322-74.113,5.921 c-23.635-10.401-41.389-33.189-45.695-58.649c-5.479,16.249-9.726,33.243-12.19,50.346c10.943,30.979,31.468,59.134,57.188,81.737 c42.044,36.949,95.568,57.92,149.869,72.224C219.28,611.204,318.427,602.137,416.786,607.505z" clip-path="url(#SVGID_2_)"/><g clip-path="url(#SVGID_2_)"><path fill="#412061" d="M519.559,77.52c0,0,1.295,0.565,3.723,1.625c1.207,0.545,2.722,1.159,4.502,1.872 c0.89,0.357,1.846,0.74,2.866,1.149c1.031,0.383,2.126,0.791,3.283,1.221c2.301,0.891,4.907,1.72,7.718,2.687 c2.839,0.884,5.9,1.857,9.216,2.749c6.616,1.822,14.165,3.563,22.482,4.916c8.316,1.338,17.397,2.358,27.021,2.608 c9.617,0.258,19.773-0.074,30.141-1.439c10.371-1.291,20.938-3.602,31.338-6.903c5.186-1.697,10.328-3.63,15.376-5.82 c5.019-2.254,9.975-4.683,14.743-7.437c1.211-0.655,2.362-1.414,3.545-2.113l1.762-1.069l0.22-0.134l0.11-0.067 c-0.194,0.123,0.009-0.009-0.006,0l0.438-0.298l0.876-0.596c2.333-1.587,4.665-3.173,6.992-4.756 c2.227-1.63,4.286-3.324,6.427-4.966c2.149-1.583,4.163-3.448,6.199-5.232c4.148-3.482,7.879-7.388,11.658-11.114 c1.796-1.964,3.581-3.916,5.354-5.854l1.326-1.449l1.259-1.505c0.834-1.004,1.665-2.003,2.493-2.999 c3.386-3.91,6.363-8.075,9.417-12.013c1.44-2.043,2.866-4.065,4.273-6.063c0.701-1,1.397-1.994,2.09-2.981 c0.662-1.011,1.32-2.016,1.975-3.014c1.306-1.996,2.593-3.964,3.861-5.903c1.216-1.979,2.413-3.927,3.591-5.843 c2.396-3.797,4.502-7.626,6.623-11.221c2.08-3.627,3.983-7.168,5.842-10.498c1.797-3.377,3.5-6.58,5.101-9.59 c3.14-6.069,5.86-11.369,8.054-15.778c4.389-8.823,6.896-13.864,6.896-13.864l14.188,7.396c0,0-2.748,4.96-7.557,13.642 c-2.406,4.343-5.404,9.599-8.863,15.617c-1.768,2.995-3.647,6.183-5.63,9.542c-2.055,3.329-4.157,6.854-6.457,10.482 c-2.346,3.605-4.671,7.418-7.322,11.238c-1.301,1.921-2.624,3.875-3.968,5.859c-1.402,1.949-2.825,3.928-4.269,5.935 c-0.722,1.002-1.449,2.01-2.181,3.026c-0.765,0.995-1.534,1.996-2.308,3.003c-1.555,2.008-3.127,4.042-4.718,6.097 c-3.369,3.978-6.652,8.154-10.38,12.101c-0.911,1.001-1.826,2.007-2.745,3.017l-1.385,1.512l-1.458,1.46 c-1.947,1.948-3.909,3.91-5.883,5.884c-4.146,3.752-8.235,7.657-12.769,11.142c-2.229,1.784-4.402,3.621-6.837,5.265 c-2.376,1.667-4.753,3.425-7.142,5.011c-2.395,1.479-4.794,2.96-7.196,4.442l-0.9,0.556l-0.451,0.278l-0.229,0.141l-0.12,0.065 l-0.238,0.131l-1.907,1.046c-1.278,0.684-2.526,1.424-3.83,2.059c-5.146,2.673-10.455,4.993-15.805,7.113 c-5.377,2.057-10.823,3.833-16.285,5.354c-10.949,2.951-21.956,4.844-32.661,5.699c-10.702,0.929-21.089,0.806-30.861,0.111 c-9.779-0.688-18.938-2.131-27.284-3.856c-8.348-1.74-15.877-3.832-22.45-5.959c-3.294-1.045-6.329-2.159-9.139-3.172 c-2.78-1.096-5.354-2.042-7.623-3.038c-1.14-0.482-2.219-0.939-3.233-1.369c-1.005-0.455-1.946-0.881-2.822-1.278 c-1.752-0.793-3.237-1.473-4.419-2.071C520.827,78.142,519.559,77.52,519.559,77.52z"/></g></g><circle cx="579.533" cy="45.333" r="3.667" fill="#935EC7"/><circle cx="662.533" cy="50" r="4.667" fill="#935EC7"/><circle cx="643.033" cy="24.833" r="2.5" fill="#935EC7"/><circle cx="393.783" cy="21.583" r="3.25" fill="#935EC7"/><circle cx="307.033" cy="59.5" r="1.833" fill="#935EC7"/><circle cx="452.2" cy="124.667" r="3.667" fill="#935EC7"/><circle cx="678.366" cy="134.833" r="6.5" fill="#935EC7"/><circle cx="542.95" cy="46.417" r="1.083" fill="#935EC7"/><circle cx="579.533" cy="22" r="3.667" fill="#935EC7"/><circle cx="429.033" cy="42.167" r="3.167" fill="#935EC7"/><circle cx="218.2" cy="36" r="4.333" fill="#935EC7"/><circle cx="251.491" cy="23.208" r="1.625" fill="#935EC7"/><circle cx="72.575" cy="49.542" r="2.042" fill="#935EC7"/><circle cx="160.7" cy="133.167" r="1.5" fill="#935EC7"/><circle cx="190.366" cy="220.167" r="2.5" fill="#935EC7"/><circle cx="123.867" cy="274.333" r="7.333" fill="#935EC7"/><circle cx="225.033" cy="311.833" r="6.833" fill="#935EC7"/><circle cx="295.533" cy="266" r="5" fill="#935EC7"/><circle cx="246.533" cy="253.333" r="3.333" fill="#935EC7"/><circle cx="491.533" cy="288.667" r="7" fill="#935EC7"/><circle cx="531.033" cy="263.5" r="2.5" fill="#935EC7"/><circle cx="562.867" cy="247.333" r="4.333" fill="#935EC7"/><circle cx="611.158" cy="136.458" r="3.292" fill="#935EC7"/><circle cx="477.367" cy="33.833" r="2.167" fill="#935EC7"/><circle cx="384.867" cy="122.667" r="5.667" fill="#FFC93B"/><circle cx="298.533" cy="28.667" r="3" fill="#FFC93B"/><circle cx="115.2" cy="17" r="1.333" fill="#FFC93B"/><circle cx="705.45" cy="124.667" r="1.333" fill="#FFC93B"/><circle cx="103.617" cy="143.75" r="2.417" fill="#FFC93B"/><circle cx="168.367" cy="303.833" r="1.167" fill="#FFC93B"/><circle cx="49.867" cy="291.333" r="2.667" fill="#FFC93B"/><circle cx="544.7" cy="125.5" r="2.833" fill="#FFC93B"/><circle cx="47.2" cy="101.667" r="2.833" fill="#FFC93B"/><circle cx="705.45" cy="30.417" r="5.583" fill="#FFC93B"/><circle cx="423.2" cy="291.333" r="2.667" fill="#FFC93B"/><path fill="#935EC7" d="M160.7,22.125l0.378,1.711c0.491,2.224,2.229,3.961,4.452,4.453l1.711,0.378l-1.711,0.378 c-2.224,0.491-3.961,2.229-4.452,4.453l-0.378,1.711l-0.378-1.711c-0.491-2.224-2.229-3.961-4.453-4.453l-1.711-0.378l1.711-0.378 c2.225-0.491,3.962-2.229,4.453-4.453L160.7,22.125z"/><path fill="#935EC7" d="M131.2,212.774l0.282,1.28c0.367,1.664,1.667,2.963,3.33,3.33l1.28,0.283l-1.28,0.283 c-1.663,0.368-2.963,1.667-3.33,3.331l-0.282,1.28l-0.283-1.28c-0.367-1.664-1.667-2.963-3.33-3.331l-1.28-0.283l1.28-0.283 c1.663-0.367,2.963-1.667,3.33-3.33L131.2,212.774z"/><path fill="#935EC7" d="M370.107,54.607l0.283,1.28c0.367,1.664,1.666,2.963,3.33,3.331L375,59.5l-1.279,0.283 c-1.664,0.367-2.963,1.667-3.33,3.331l-0.283,1.28l-0.282-1.28c-0.368-1.664-1.667-2.963-3.331-3.331l-1.279-0.283l1.279-0.283 c1.664-0.367,2.963-1.667,3.331-3.331L370.107,54.607z"/><path fill="#935EC7" d="M528.533,20.774l0.283,1.28c0.367,1.664,1.666,2.963,3.33,3.33l1.279,0.283l-1.279,0.283 c-1.664,0.368-2.963,1.667-3.33,3.331l-0.283,1.28l-0.283-1.28c-0.367-1.664-1.666-2.963-3.33-3.331l-1.279-0.283l1.279-0.283 c1.664-0.367,2.963-1.667,3.33-3.33L528.533,20.774z"/><path fill="#935EC7" d="M619.343,212.774l0.282,1.28c0.368,1.664,1.667,2.963,3.331,3.33l1.279,0.283l-1.279,0.283 c-1.664,0.368-2.963,1.667-3.331,3.331l-0.282,1.28l-0.282-1.28c-0.368-1.664-1.667-2.963-3.331-3.331l-1.279-0.283l1.279-0.283 c1.664-0.367,2.963-1.667,3.331-3.33L619.343,212.774z"/><path fill="#935EC7" d="M719.587,153.723l0.282,1.28c0.367,1.664,1.667,2.963,3.331,3.331l1.279,0.283l-1.279,0.283 c-1.664,0.367-2.964,1.667-3.331,3.33l-0.282,1.28l-0.283-1.28c-0.367-1.664-1.666-2.963-3.33-3.33l-1.28-0.283l1.28-0.283 c1.664-0.368,2.963-1.667,3.33-3.331L719.587,153.723z"/><path fill="#935EC7" d="M390.533,335.827l0.282,1.28c0.368,1.663,1.667,2.963,3.331,3.33l1.279,0.283l-1.279,0.282 c-1.664,0.367-2.963,1.667-3.331,3.33l-0.282,1.28l-0.283-1.28c-0.367-1.663-1.666-2.963-3.33-3.33l-1.279-0.282l1.279-0.283 c1.664-0.367,2.963-1.667,3.33-3.33L390.533,335.827z"/><g><circle id="earth" cx="617.343" cy="156.482" r="51.881" fill="#59B2FF" opacity=".1"/><path fill="#8DAFCC" d="M597.188,190.44l-0.198-5.335l19.089-5.672l23.324-6.22c0,0,8.376,0.727,8.704,1.036 c0.327,0.309,1.924,4.395,1.924,4.395l-11.153,9.015l-23.269,5.35l-9.683,1.284l-6.449-2.833L597.188,190.44z"/><path fill="#005E01" d="M623.666,117.49l-7.581,5.634l-20.999,4.059l-2.878-1.17l-9.757,43.837l-0.975,3.193l4.24,2.084 c0,0,17.047,6.084,17.496,6.366c0.449,0.282,32.078-9.428,32.078-9.428l21.548-15.058l-16.53-27.268L623.666,117.49z"/><circle cx="617.343" cy="156.482" r="38.149" fill="#59B2FF"/><path fill="#008D01" d="M623.666,117.49c0.136,1.145,0.126,2.377-0.219,3.751c-0.765,3.055-3.976,6.34-6.97,7.316 c-0.515,0.167-1.032,0.322-1.547,0.475c-2.614,0.777-5.345,1.638-6.955,4.038c-0.638,0.951-0.964,2.114-0.789,3.245 c0.428,2.771,3.021,3.47,5.081,4.629c1.649,0.928,3.204,2.847,2.389,4.555c-0.766,1.605-3.054,1.798-4.202,3.157 c-2.197,2.6,1.276,6.593,0.319,9.859c-0.631,2.156-2.935,3.252-4.719,4.617c-2.02,1.546-3.581,3.764-4.059,6.262 c-0.478,2.498,0.225,5.258,2.049,7.031c2.152,2.092,5.587,2.53,8.406,1.499c2.818-1.031,5.039-3.341,6.463-5.984 c0.619-1.149,1.142-2.416,2.164-3.227c2.408-1.908,5.859-0.325,8.728,0.777c2.968,1.141,6.161,1.691,9.34,1.611 c2.273-0.058,4.965-0.74,5.432-3.187c0.187-0.979-0.103-2-0.671-2.82c-0.264-0.382-0.564-0.716-0.893-1.011 c-2.235-2.011-2.406-5.519-0.076-7.419c0.034-0.028,0.068-0.055,0.104-0.083c1.797-1.429,4.23-2.261,6.428-1.592 c1.34,0.408,2.47,1.324,3.781,1.816c1.185,0.444,2.41,0.472,3.589,0.201c0.038-3.09-0.277-6.231-1.001-9.376 C652.131,131.509,639.045,119.99,623.666,117.49z"/><path fill="#008D01" d="M578.848,165.333c0.622,2.707,1.512,5.283,2.629,7.709c0.454-0.142,0.896-0.333,1.318-0.588 c0.825-0.496,1.552-1.203,2.482-1.448c1.688-0.445,3.316,0.743,4.773,1.705c1.457,0.962,3.507,1.72,4.83,0.581 c0.393-2.342-1.445-4.489-3.454-5.756c-2.008-1.268-4.344-2.083-6.014-3.771c-1.671-1.688-2.339-4.761-0.557-6.329 c0.958-0.842,2.401-1.057,3.198-2.053c1.104-1.381,0.385-3.438-0.585-4.917s-2.213-3.012-2.044-4.772 c0.209-2.195,2.48-3.536,4.55-4.299s4.427-1.493,5.463-3.44c1.021-1.918,0.342-4.273-0.486-6.281 c-0.786-1.905-1.694-3.854-2.744-5.662C581.048,135.233,575.382,150.264,578.848,165.333z"/><path fill="#B0DBFF" d="M626.194,194.978c10.126-2.329,18.434-8.361,23.836-16.334c-0.206,0.006-0.411,0.015-0.612,0.025 c-4.074,0.214-8.434,0.531-11.646,3.047c-1.862,1.458-3.763,3.74-6.04,3.1c-1.348-0.379-2.179-1.681-3.199-2.64 s-2.807-1.543-3.715-0.478c-1.348,1.581,1.158,4.099,0.267,5.975c-0.656,1.382-2.67,1.375-4.065,0.749s-2.693-1.668-4.224-1.679 c-3.779-0.025-4.967,5.725-8.565,6.881c-3.73,1.198-7.194-3.184-11.042-3.184C605.611,195.441,615.893,197.346,626.194,194.978z"/><path d="M656.839,157.007c0.038-3.09-0.277-6.232-1.001-9.376c-3.379-14.696-14.562-25.543-28.16-29.244 c3.779,4.579,6.589,10.075,8.01,16.256c0.724,3.145,1.039,6.287,1.001,9.376l-1.376,0.961c-0.265,6.908-2.411,13.502-6.044,19.149 c0.341,0.834,0.611,1.526,0.611,1.526c-5.402,7.973-13.71,14.006-23.836,16.334c-5.759,1.324-11.505,1.29-16.93,0.147 c2.362,2.595,5.059,4.851,8.014,6.697l0.06,1.606c2.729,1.62,5.652,2.908,8.707,3.838l0.031,0.013l0.01-0.001 c6.369,1.931,13.308,2.285,20.259,0.687c10.126-2.329,18.434-8.361,23.836-16.334c0,0-0.271-0.692-0.61-1.526 c3.632-5.647,5.778-12.241,6.043-19.149L656.839,157.007z" opacity=".1"/></g><g><circle id="sun" cx="169.533" cy="117" r="36.776" fill="#FFD643" opacity=".2"/><g><circle cx="169.533" cy="117" r="23.341" fill="#FFD643"/></g></g></g></svg>