<svg xmlns="http://www.w3.org/2000/svg" xmlns:xlink="http://www.w3.org/1999/xlink" id="OBJECTS" width="500" height="500" x="0" y="0" enable-background="new 0 0 500 500" version="1.1" viewBox="0 0 500 500" xml:space="preserve"><g id="XMLID_2956_"><path id="XMLID_2966_" fill="#CFD1D2" d="M471.136,282.324c0,0-1.862-27.784-11.862-34.626 c-10.001-6.842-31.697-12.744-31.697-12.744l12.468,109.214c0,0,16.656-2.632,21.092-19.475 C465.571,307.852,471.136,282.324,471.136,282.324z"/><path id="XMLID_2957_" fill="#919395" d="M467.38,271.1c0,0-4.311-19.539-19.718-13.491c-15.406,6.049,0.974,76.445,0.974,76.445 s4.528,5.957,10.553-9.294C465.212,309.509,467.38,271.1,467.38,271.1z"/></g><g id="XMLID_2950_"><path id="XMLID_2947_" fill="#CFD1D2" d="M28.864,282.324c0,0,1.862-27.784,11.863-34.626c10-6.842,31.696-12.744,31.696-12.744 L59.956,344.168c0,0-16.656-2.632-21.091-19.475C34.429,307.852,28.864,282.324,28.864,282.324z"/><path id="XMLID_2946_" fill="#919395" d="M32.62,271.1c0,0,4.311-19.539,19.717-13.491c15.407,6.049-0.973,76.445-0.973,76.445 s-4.529,5.957-10.552-9.294S32.62,271.1,32.62,271.1z"/></g><line id="XMLID_2546_" x1="37.5" x2="462.5" y1="450" y2="450" fill="none" stroke="#58948A" stroke-linecap="round" stroke-miterlimit="10" stroke-width="12"/><path id="XMLID_2533_" fill="#B04648" d="M316.381,168.801l-66.297-2.825v-0.007L250,165.972l-0.083-0.003v0.007l-66.297,2.825	c0,0-59.51,41.239-83.87,106.199h150.167h0.167h150.167C375.891,210.04,316.381,168.801,316.381,168.801z"/><g id="XMLID_2544_"><rect id="XMLID_2528_" width="400" height="225" x="50" y="225" fill="#F0F1F1"/><g id="XMLID_2542_"><line id="XMLID_2541_" x1="87.5" x2="412.5" y1="237.5" y2="237.5" fill="none" stroke="#919395" stroke-miterlimit="10" stroke-width="2"/><line id="XMLID_2543_" x1="62.5" x2="62.5" y1="412.5" y2="262.5" fill="none" stroke="#919395" stroke-miterlimit="10" stroke-width="2"/><line id="XMLID_2530_" x1="412.5" x2="87.5" y1="437.5" y2="437.5" fill="none" stroke="#919395" stroke-miterlimit="10" stroke-width="2"/><line id="XMLID_2540_" x1="437.5" x2="437.5" y1="262.5" y2="412.5" fill="none" stroke="#919395" stroke-miterlimit="10" stroke-width="2"/></g><g id="XMLID_2536_"><g id="XMLID_2532_"><polygon id="XMLID_2531_" fill="#F1CE30" points="62.707 227.463 70.055 233.641 79.31 231.089 75.705 239.987 80.992 248 71.416 247.322 65.428 254.825 63.114 245.509 54.128 242.133 62.273 237.053"/><polygon id="XMLID_2535_" fill="#F1CE30" points="437.293 227.463 429.945 233.641 420.69 231.089 424.295 239.987 419.008 248 428.584 247.322 434.571 254.825 436.886 245.509 445.872 242.133 437.727 237.053"/></g><g id="XMLID_2537_"><polygon id="XMLID_2539_" fill="#F1CE30" points="437.293 447.537 429.945 441.359 420.69 443.911 424.295 435.014 419.008 427 428.584 427.679 434.571 420.175 436.886 429.491 445.872 432.867 437.727 437.946"/><polygon id="XMLID_2538_" fill="#F1CE30" points="62.707 447.537 70.055 441.359 79.31 443.911 75.705 435.014 80.992 427 71.416 427.679 65.428 420.175 63.114 429.491 54.128 432.867 62.273 437.946"/></g></g></g><g id="XMLID_2522_"><g id="XMLID_2520_"><circle id="XMLID_2519_" cx="173.366" cy="74.101" r="21.532" fill="#F0F1F1"/><path id="XMLID_2523_" fill="#E5E5E6" d="M179.37,86.627c-11.892,0-21.532-9.64-21.532-21.532c0-2.467,0.435-4.827,1.199-7.034 c-4.411,3.943-7.203,9.658-7.203,16.04c0,11.892,9.64,21.532,21.532,21.532c9.425,0,17.415-6.065,20.333-14.498 C189.891,84.54,184.88,86.627,179.37,86.627z"/></g><g id="XMLID_2513_"><path id="XMLID_2518_" fill="#B04648" d="M225.649,42.14c0,0-12.403,23.748-41.325,22.131 c-28.921-1.616-17.805,31.025,11.051,31.391C224.231,96.028,225.649,42.14,225.649,42.14z"/><path id="XMLID_2521_" fill="#9D3335" d="M219.858,73.53c-0.458,0.229-0.914,0.454-1.381,0.697 c-29.381,15.295-42.692,3.367-48.278-6.169c-8.473,8.324,3.191,27.326,25.177,27.604C208.187,95.825,215.587,85.292,219.858,73.53 z"/></g><g id="XMLID_1466_"><path id="XMLID_2507_" fill="#B04648" d="M305.103,69.92c-6.028-9.374-20.847-11.111-26.73-27.58 C273.407,28.443,258.21,24.805,250,24.805s-23.407,3.639-28.372,17.536c-5.884,16.469-20.702,18.206-26.73,27.58 c-6.747,10.491-3.888,37.39-3.888,37.39L250,89.97l58.99,17.341C308.99,107.311,311.849,80.412,305.103,69.92z"/><path id="XMLID_2508_" fill="#9D3335" d="M221.628,42.34c-5.884,16.469-20.702,18.206-26.73,27.58 c-6.747,10.491-3.888,37.39-3.888,37.39l12.955-3.809c6.02-5.025,10.874-11.945,8.535-20.491 c-5.175-18.909,28.225-39.21,28.225-39.21c-8.756,2.516-16.314,6.179-16.314,6.179c0.678-8.474,6.151-16.467,10.997-21.995 C229.656,30.584,224.233,35.049,221.628,42.34z"/><path id="XMLID_2509_" fill="#B7797B" d="M305.103,69.92c-6.028-9.374-20.847-11.111-26.73-27.58 c-2.354-6.588-7.009-10.868-12.127-13.551c2.41,2.697,5.588,7.518,6.679,15.011c1.687,11.578,24.396,21.429,34.296,30.782 C306.649,72.826,305.952,71.243,305.103,69.92z"/></g><g id="XMLID_1392_"><path id="XMLID_1365_" fill="#F2F2F2" d="M316.465,168.801c3.242-35.19-13.542-63.798-13.542-63.798L250,81.301l-52.923,23.702 c0,0-16.784,28.608-13.542,63.798c0,0-21.479,24.964,11.205,43.7c0,0-5.888,27.231,30.26,28.896c0,0,1.825,18.398,25,18.398 c23.175,0,25-18.398,25-18.398c36.147-1.665,30.26-28.896,30.26-28.896C337.943,193.765,316.465,168.801,316.465,168.801z"/><path id="XMLID_1463_" fill="#666" d="M250,253.723c-22.344-0.748-24.304-20.018-24.304-20.018 c-32.99,3.929-28.001-27.315-28.001-27.315c-27.128-9.354-14.16-37.588-14.16-37.588s-21.479,24.964,11.205,43.7 c0,0-5.888,27.231,30.26,28.896c0,0,1.825,18.398,25,18.398c23.175,0,25-18.398,25-18.398S272.344,254.472,250,253.723z" opacity=".35"/><path id="XMLID_1464_" fill="#EFF8F7" d="M305.26,212.5c0,0-4.309,23.529-30.26,28.896C311.147,239.731,305.26,212.5,305.26,212.5 z"/></g><path id="XMLID_1328_" fill="#E2D0C1" d="M296.928,118.596c-14.072-4.666-17.243-18.299-17.243-18.299L250,87.797l-29.685,12.5 c0,0-3.171,13.633-17.243,18.299c0,0-12.289,53.436,12.288,52.399H250h34.64C309.216,172.031,296.928,118.596,296.928,118.596z"/><g id="XMLID_68_"><g id="XMLID_1335_"><path id="XMLID_1323_" fill="#CE6760" d="M278.372,188.87l-3.267-7.622L250,188.87l-25.105-7.622l-3.267,7.622 c0,0,4.149,29.93,28.372,29.931l0,0l0,0l0,0l0,0C274.224,218.8,278.372,188.87,278.372,188.87z"/></g><g id="XMLID_1391_"><path id="XMLID_1325_" fill="#D8A399" d="M250,200.258c-8.593,0-16.194,2.94-20.849,7.451 c4.278,5.989,10.85,11.092,20.849,11.092l0,0l0,0c9.999,0,16.571-5.103,20.849-11.092 C266.194,203.199,258.594,200.258,250,200.258z"/><path id="XMLID_1393_" fill="#D59284" d="M250,218.801L250,218.801L250,218.801c0.79,0,1.551-0.042,2.298-0.104 c-9.754-5.613-12.238-12.302-12.602-16.935c-4.237,1.296-7.877,3.362-10.545,5.947C233.429,213.698,240.001,218.801,250,218.801z"/></g></g><g id="XMLID_1326_"><circle id="XMLID_75_" cx="230.003" cy="136.893" r="5.593" fill="#564B44"/><circle id="XMLID_1327_" cx="269.997" cy="136.893" r="5.592" fill="#564B44"/></g><g id="XMLID_1333_" opacity=".5"><ellipse id="XMLID_1332_" cx="214.339" cy="153.797" fill="#D8A399" rx="11.357" ry="7.914"/><ellipse id="XMLID_1334_" cx="285.661" cy="153.797" fill="#D8A399" rx="11.357" ry="7.914"/></g><g id="XMLID_73_"><path id="XMLID_1368_" fill="#666" d="M282.559,181.301L250,179.953l-32.559,1.348l-32.542,8.503 c0,0,1.068,14.573,17.982,15.396c15.836,0.771,24.273-12.927,24.273-12.927s7.698,7.985,22.845,7.985s22.845-7.985,22.845-7.985 s8.437,13.699,24.273,12.927c16.914-0.824,17.982-15.396,17.982-15.396L282.559,181.301z" opacity=".35"/><path id="XMLID_1321_" fill="#F2F2F2" d="M310.845,175.468c-14.348-19.698-39.037-20.927-39.037-20.927h-43.616 c0,0-24.688,1.229-39.036,20.927c-12.043,16.534,2.138,33.342,23.345,22.935c11.551-5.669,13.74-11.019,13.74-11.019 s9.12,8.511,23.76,8.511s23.76-8.511,23.76-8.511s2.188,5.35,13.739,11.019C308.707,208.81,322.888,192.002,310.845,175.468z"/><path id="XMLID_1366_" fill="#FFF" d="M189.155,175.468c-1.421,1.951-2.465,3.904-3.188,5.818 c0.28-0.318,17.594-19.885,44.016-20.983c9.111-0.378,11.752-2.774,11.286-5.762h-13.078 C228.191,154.541,203.503,155.771,189.155,175.468z"/><path id="XMLID_1364_" fill="#FFF" d="M310.845,175.468c1.421,1.951,2.465,3.904,3.188,5.818 c-0.28-0.318-17.594-19.885-44.016-20.983c-9.111-0.378-11.752-2.774-11.286-5.762h13.078 C271.809,154.541,296.497,155.771,310.845,175.468z"/><path id="XMLID_1390_" fill="#FFF" d="M271.83,160.411L250,161.71l-21.83-1.299c0,0-0.495,20.837,21.83,20.837 S271.83,160.411,271.83,160.411z"/><g id="XMLID_66_"><path id="XMLID_8_" fill="#D8A399" d="M272.031,157.481c0,12.167-9.863,19.915-22.031,19.915 c-12.167,0-22.031-7.748-22.031-19.915S237.833,143.21,250,143.21C262.168,143.21,272.031,145.314,272.031,157.481z"/><ellipse id="XMLID_65_" cx="263.296" cy="151.003" fill="#E1CBC6" rx="6.03" ry="3.077" transform="matrix(0.871 0.4912 -0.4912 0.871 108.1347 -109.8639)"/><path id="XMLID_74_" fill="#D48E80" d="M250,171.393c-11.112,0-20.297-6.463-21.809-16.852c-0.144,0.909-0.223,1.885-0.223,2.94 c0,12.167,9.864,19.915,22.031,19.915c12.168,0,22.031-7.748,22.031-19.915c0-1.056-0.079-2.031-0.223-2.94 C270.297,164.929,261.111,171.393,250,171.393z"/></g></g><g id="XMLID_1363_"><path id="XMLID_1367_" fill="#666" d="M237.787,222.711c0,0,0.131-0.003,0.377-0.009 c0.227,0.006,0.58-0.034,0.986-0.017c0.402,0.013,0.92-0.028,1.434,0.014c0.544-0.005,1.129,0.009,1.745,0.021 c0.59,0.022,1.229,0.046,1.904,0.072c0.643,0.062,1.319,0.039,1.974,0.111c0.665,0.015,1.329,0.064,1.983,0.107 c0.659-0.004,1.308,0.119,1.954,0.088c0.321,0.021,0.646,0.064,0.966,0.074c0.317-0.024,0.637,0.013,0.955,0.021 c0.645,0.069,1.264,0.015,1.903,0.064c0.645,0.074,1.256-0.008,1.888,0.03c0.64,0.057,1.244,0.011,1.838,0.003 c0.585-0.026,1.207,0.074,1.719,0.028c0.506-0.049,1.008-0.024,1.419-0.028c0.404-0.013,0.772,0.033,1.007,0.035 c0.249,0.02,0.383,0.031,0.383,0.031l0.28,0.385c0,0-0.346,0.238-0.949,0.654c-0.304,0.208-0.673,0.462-1.095,0.752 c-0.414,0.308-0.959,0.523-1.521,0.812c-0.568,0.28-1.18,0.598-1.883,0.797c-0.694,0.21-1.402,0.533-2.193,0.647 c-0.78,0.147-1.581,0.362-2.42,0.386c-0.417,0.033-0.837,0.066-1.259,0.099c-0.422,0.008-0.847-0.02-1.271-0.029 c-0.853-0.01-1.688-0.173-2.512-0.299c-0.821-0.142-1.612-0.369-2.375-0.574c-0.748-0.259-1.484-0.471-2.145-0.771 c-0.675-0.264-1.292-0.56-1.855-0.845c-1.13-0.564-2.001-1.16-2.602-1.583c-0.603-0.421-0.924-0.7-0.924-0.7L237.787,222.711z" opacity=".35"/></g><g id="XMLID_1441_"><path id="XMLID_1394_" fill="#F2F2F2" d="M225,98.324c0,0-2.559,21.193-30.102,33.753v-13.276l15.051-14.267l11.679-7.271 L225,98.324z"/><path id="XMLID_2254_" fill="#FFF" d="M225,98.324l-6.981,2.291c-5.731,20.109-23.121,31.462-23.121,31.462 C222.441,119.517,225,98.324,225,98.324z"/></g><g id="XMLID_2496_"><path id="XMLID_2498_" fill="#F2F2F2" d="M275,98.324c0,0,2.559,21.193,30.103,33.753v-13.276l-15.052-14.267l-11.679-7.271 L275,98.324z"/><path id="XMLID_2497_" fill="#FFF" d="M275,98.324l6.981,2.291c5.73,20.109,23.121,31.462,23.121,31.462 C277.559,119.517,275,98.324,275,98.324z"/></g><g id="XMLID_2504_"><path id="XMLID_2511_" fill="#666" d="M188.16,126.67c0,0,24.529-20.37,61.84-20.37V89.97l-57.202,26.804 C192.798,116.774,190.183,120.974,188.16,126.67z" opacity=".35"/><path id="XMLID_2512_" fill="#666" d="M307.202,116.774L250,89.97v16.331c37.311,0,61.84,20.37,61.84,20.37 C309.816,120.974,307.202,116.774,307.202,116.774z" opacity=".35"/></g><g id="XMLID_2495_"><g id="XMLID_2499_"><path id="XMLID_2506_" fill="#F0F1F1" d="M312.5,103.126c0,0,1.847-5.737-10.744-17.506C289.164,73.852,264.041,68.8,250,68.8 s-39.165,5.051-51.756,16.82c-12.591,11.769-10.744,17.506-10.744,17.506s-9.997,13.105,0.66,23.544c0,0,2.493-6.294,4.638-9.896 c0,0,27.369-15.45,57.202-15.45c29.834,0,57.202,15.45,57.202,15.45c2.145,3.603,4.638,9.896,4.638,9.896 C322.496,116.232,312.5,103.126,312.5,103.126z"/><path id="XMLID_2503_" fill="#E5E5E6" d="M298.392,83.011c1.259,0.83,2.391,1.7,3.364,2.609 c12.591,11.769,10.744,17.506,10.744,17.506s9.997,13.105-0.66,23.544c0,0-2.493-6.294-4.638-9.896c0,0-0.188-0.093-0.514-0.25 c6.136-11.934-19.188-24.839-19.188-24.839s17.039,7.435,16.29,3.38C302.956,90.55,300.855,86.472,298.392,83.011z"/><path id="XMLID_2501_" fill="#BABCBE" d="M311.84,126.67c0,0-2.493-6.294-4.638-9.896 C307.202,116.774,314.276,120.261,311.84,126.67z"/></g><g id="XMLID_1465_"><path id="XMLID_2502_" fill="#E5E5E6" d="M201.608,83.011c-1.258,0.83-2.39,1.7-3.364,2.609 c-12.591,11.769-10.744,17.506-10.744,17.506s-9.997,13.105,0.66,23.544c0,0,2.493-6.294,4.638-9.896c0,0,0.188-0.093,0.514-0.25 C187.176,104.59,212.5,91.685,212.5,91.685s-17.039,7.435-16.29,3.38C197.044,90.55,199.144,86.472,201.608,83.011z"/><path id="XMLID_2500_" fill="#BABCBE" d="M188.16,126.67c0,0,2.493-6.294,4.638-9.896 C192.798,116.774,185.724,120.261,188.16,126.67z"/></g></g><g id="XMLID_2505_"><path id="XMLID_2510_" fill="#F2F2F2" d="M219.066,122.13c0,0-4.867,2.307-4.501,6.066s4.901,3.835,7.982,1.876 c3.309-2.104,8.274-4.642,13.559-6.637c4.129-1.56,6.634-11.783-6.072-10.024C217.659,115.125,215.66,120.889,219.066,122.13z"/><path id="XMLID_2515_" fill="#FFF" d="M238.921,115.859c-0.805,2.55-3.438,5.748-10.677,8.521 c-14.847,5.688-9.178-2.249-9.178-2.249s-4.867,2.307-4.501,6.066s4.901,3.835,7.982,1.876c3.309-2.104,8.274-4.642,13.559-6.637 C238.545,122.514,240.415,118.571,238.921,115.859z"/></g><g id="XMLID_2514_"><path id="XMLID_2517_" fill="#F2F2F2" d="M280.934,122.13c0,0,4.867,2.307,4.501,6.066s-4.901,3.835-7.981,1.876 c-3.31-2.104-8.274-4.642-13.56-6.637c-4.129-1.56-6.634-11.783,6.072-10.024C282.341,115.125,284.34,120.889,280.934,122.13z"/><path id="XMLID_2516_" fill="#FFF" d="M261.079,115.859c0.805,2.55,3.438,5.748,10.677,8.521 c14.848,5.688,9.178-2.249,9.178-2.249s4.867,2.307,4.501,6.066s-4.901,3.835-7.981,1.876c-3.31-2.104-8.274-4.642-13.56-6.637 C261.454,122.514,259.585,118.571,261.079,115.859z"/></g></g><g id="XMLID_2860_"><path id="XMLID_2859_" fill="#9B7B53" d="M20.426,285.188c0,0,5.322-21.899,25.788-25.618c23.58-4.285,25.494,11.245,8.246,17.787 c0,0,12.017-3.031,21.182-2.419c16.414,1.098,18.745,43.957,2.221,52.901C42.24,347.123,14.281,313.525,20.426,285.188z"/><path id="XMLID_2948_" fill="#7F5E40" d="M46.942,278.662c0,0,4.92-0.614,11.107-2.096c-2.196,0.438-3.589,0.79-3.589,0.79 c12.156-4.611,14.779-13.678,7.022-17.135C62.825,264.234,62.747,271.98,46.942,278.662z"/><path id="XMLID_2949_" fill="#7F5E40" d="M77.863,327.839c16.524-8.944,14.193-51.804-2.221-52.901 c-2.409-0.161-5.014-0.068-7.546,0.152c3.995,10.899,16.006,47.029,0.538,49.224c-38.622,5.478-47.487-17.562-48.875-34.811 C17.122,316.776,44.034,346.151,77.863,327.839z"/></g><g id="XMLID_2952_"><path id="XMLID_2955_" fill="#9B7B53" d="M478.573,285.188c0,0-5.321-21.899-25.787-25.618 c-23.581-4.285-25.494,11.245-8.246,17.787c0,0-12.018-3.031-21.183-2.419c-16.414,1.098-18.744,43.957-2.221,52.901 C456.76,347.123,484.718,313.525,478.573,285.188z"/><path id="XMLID_2954_" fill="#7F5E40" d="M452.058,278.662c0,0-4.92-0.614-11.107-2.096c2.196,0.438,3.589,0.79,3.589,0.79 c-12.155-4.611-14.778-13.678-7.021-17.135C436.174,264.234,436.253,271.98,452.058,278.662z"/><path id="XMLID_2953_" fill="#7F5E40" d="M421.137,327.839c-16.523-8.944-14.193-51.804,2.221-52.901 c2.409-0.161,5.014-0.068,7.547,0.152c-3.995,10.899-16.006,47.029-0.538,49.224c38.621,5.478,47.487-17.562,48.876-34.811 C481.878,316.776,454.965,346.151,421.137,327.839z"/></g></svg>