<?xml version="1.0" encoding="iso-8859-1"?>
<!-- Generator: Adobe Illustrator 19.0.0, SVG Export Plug-In . SVG Version: 6.00 Build 0)  -->
<svg version="1.1" id="Layer_1" xmlns="http://www.w3.org/2000/svg" xmlns:xlink="http://www.w3.org/1999/xlink" x="0px" y="0px"
	 viewBox="0 0 155.883 155.883" style="enable-background:new 0 0 155.883 155.883;" xml:space="preserve">
<g>
	<g>
		<g>
			<circle style="fill:#FFD01F;" cx="99.422" cy="50.126" r="27.492"/>
		</g>
		<g>
			<circle style="fill:#FFD01F;" cx="99.804" cy="49.744" r="22.528"/>
		</g>
		<g>
			<circle style="fill:#FFFFFF;" cx="99.804" cy="49.744" r="22.528"/>
		</g>
		<g>
			<g>
				<path style="fill:#FFD01F;" d="M98.754,48.472V31.184c-9.616,0.434-17.406,7.843-18.451,17.288H98.754z"/>
			</g>
			<g>
				<path style="fill:#FFD01F;" d="M119.305,48.217c-1.584-9.02-8.962-16.036-18.166-17.056v17.056H119.305z"/>
			</g>
			<g>
				<path style="fill:#FFD01F;" d="M98.754,51.018v17.287c-9.616-0.434-17.406-7.842-18.451-17.287
					C80.303,51.018,98.754,51.018,98.754,51.018z"/>
			</g>
			<g>
				<path style="fill:#FFD01F;" d="M119.305,51.271c-1.584,9.02-8.962,16.037-18.166,17.056V51.271H119.305z"/>
			</g>
		</g>
	</g>
	<g>
		<polygon style="fill:#ABD9D5;" points="94.188,155.883 37.438,155.883 28.969,47.883 102.656,47.883 		"/>
	</g>
	<g>
		<polygon style="fill:#CDE8E6;" points="63.816,155.883 37.438,155.883 28.969,47.883 63.816,47.883 		"/>
	</g>
	<g>
		<polygon style="fill:#DDF0EE;" points="88.258,141.883 43.367,141.883 34.898,47.883 96.729,47.883 		"/>
	</g>
	<g>
		<polygon style="fill:#FFD01F;" points="36.805,68.606 43.367,141.449 88.258,141.449 94.82,68.606 		"/>
	</g>
	<path style="fill:#FFFFFF;" d="M83.676,127.346c-0.216,2.329-2.278,4.044-4.607,3.828l0,0c-2.328-0.215-4.042-2.277-3.827-4.606
		l4.048-43.857c0.215-2.329,2.277-4.043,4.605-3.828l0,0c2.33,0.215,4.043,2.277,3.828,4.606L83.676,127.346z"/>
	<g>
		<g>
			<polygon style="fill:#FFB000;" points="66.236,68.606 36.805,68.606 43.367,141.449 66.236,141.449 			"/>
		</g>
		<g>
			<polygon style="fill:#FFB000;" points="66.236,68.606 36.805,68.606 43.367,141.449 66.236,141.449 			"/>
		</g>
	</g>
	<g>
		<g>
			<polygon style="fill:#F62D8D;" points="37.193,0 42.182,47.433 51.064,47.433 46.076,0 			"/>
		</g>
	</g>
</g>
<g>
</g>
<g>
</g>
<g>
</g>
<g>
</g>
<g>
</g>
<g>
</g>
<g>
</g>
<g>
</g>
<g>
</g>
<g>
</g>
<g>
</g>
<g>
</g>
<g>
</g>
<g>
</g>
<g>
</g>
</svg>
