<svg xmlns="http://www.w3.org/2000/svg" xmlns:xlink="http://www.w3.org/1999/xlink" id="Capa_1" width="90.521" height="90.521" x="0" y="0" enable-background="new 0 0 90.521 90.521" version="1.1" viewBox="0 0 90.521 90.521" xml:space="preserve"><g><path d="M84.145,86.195L73.203,63.96v-2.965V0H12.87c-1.657,0-3,1.343-3,3c0,1.657,1.343,3,3,3h5.834v21.355 c-1.252-1.562-3.173-2.566-5.331-2.566c-3.772,0-6.831,3.058-6.831,6.831c0,3.504,2.64,6.388,6.038,6.781 C8.475,44.55,5.367,51.445,6.204,59.02c0.42,3.801,6.425,3.842,6,0c-0.496-4.494,0.618-8.59,2.5-12.414V59.02 c0,0.344,0.036,0.679,0.096,1.006c0.264,6.894-1.598,13.615-1.752,20.494c-0.087,3.871,5.913,3.862,6,0 c0.062-2.763,0.401-5.498,0.767-8.229c0.236,2.991,0.502,5.98,0.64,8.979c0.177,3.854,6.177,3.869,6,0 c-0.313-6.846-1.297-13.662-1.032-20.521c0.18-0.545,0.282-1.125,0.282-1.729V44.625c1.855,4.047,2.137,8.667,2.5,13.561 c0.285,3.834,6.287,3.862,6,0c-0.673-9.049-1.41-17.63-8.879-23.788c-0.551-0.455-1.148-0.677-1.734-0.724 c-0.655-0.514-1.427-0.885-2.272-1.059c0.237-0.265,0.385-0.611,0.385-0.995V6h15.284c0.1,0.141,0.205,0.279,0.331,0.405 l28.822,28.821c0.312,0.311,0.676,0.534,1.062,0.68v25.09v3.021l-9.986,22.274c-0.679,1.513-0.002,3.287,1.51,3.965 c0.397,0.179,0.814,0.265,1.226,0.265c1.146,0,2.24-0.66,2.739-1.773l4.512-10.066v8.838c0,1.656,1.343,3,3,3s3-1.344,3-3v-9.973 l5.56,11.297c0.521,1.061,1.586,1.676,2.692,1.676c0.445,0,0.896-0.1,1.322-0.31C84.266,89.479,84.876,87.682,84.145,86.195z M45.399,6h21.804v21.803L45.399,6z"/></g></svg>